<?xml version="1.0" standalone="no"?>
<!DOCTYPE svg PUBLIC "-//W3C//DTD SVG 20010904//EN"
 "http://www.w3.org/TR/2001/REC-SVG-20010904/DTD/svg10.dtd">
<svg version="1.0" xmlns="http://www.w3.org/2000/svg"
 width="285.000000pt" height="285.000000pt" viewBox="0 0 285.000000 285.000000"
 preserveAspectRatio="xMidYMid meet">
<metadata>
Created by potrace 1.14, written by Peter Selinger 2001-2017
</metadata>
<g transform="translate(0.000000,285.000000) scale(0.100000,-0.100000)"
fill="#000000" stroke="none">
<path d="M1186 2360 c-121 -55 -227 -100 -236 -100 -10 0 -35 7 -56 16 -44 19
-212 15 -280 -7 -41 -12 -43 -11 -263 80 -122 51 -225 91 -228 88 -2 -3 2 -16
11 -29 8 -12 73 -133 145 -268 l129 -244 -33 -37 c-50 -55 -60 -97 -60 -244 0
-145 10 -187 57 -241 38 -43 58 -43 97 1 39 44 61 120 61 207 0 39 4 68 10 68
6 0 10 -4 10 -9 0 -14 206 -395 216 -398 5 -2 67 110 139 247 71 138 132 250
135 250 3 0 4 -53 2 -118 -3 -102 0 -126 19 -177 23 -61 57 -105 83 -105 28 0
71 48 91 101 27 74 28 270 2 345 -23 68 -66 109 -103 100 -26 -7 -27 -7 -12
16 9 13 45 82 82 154 36 71 99 191 140 267 41 75 71 137 67 137 -3 0 -105 -45
-225 -100z m-732 -762 c24 -34 21 -139 -3 -169 l-20 -24 -23 23 c-20 19 -23
33 -23 91 0 93 33 131 69 79z m710 -20 c34 -48 12 -178 -29 -178 -26 0 -45 43
-45 100 0 57 19 100 45 100 8 0 21 -10 29 -22z"/>
<path d="M86 2285 c-10 -26 -56 -320 -66 -424 -15 -155 -12 -515 5 -665 18
-151 53 -316 96 -448 34 -104 155 -358 170 -358 5 0 20 7 33 15 l23 15 -58
115 c-83 166 -145 363 -185 590 -21 113 -30 548 -15 710 6 72 25 202 41 290
15 88 28 160 27 161 -1 1 -16 4 -34 7 -22 4 -33 2 -37 -8z"/>
<path d="M1568 2008 l-3 -223 -32 1 c-20 1 -34 -4 -38 -14 -8 -21 12 -32 61
-32 71 0 72 4 76 263 l3 227 -32 0 -33 0 -2 -222z"/>
<path d="M1730 2035 l0 -195 100 0 c82 0 100 3 100 15 0 12 -14 15 -70 15
l-70 0 0 75 0 74 67 3 c42 2 68 8 71 16 3 9 -15 12 -67 12 l-71 0 0 75 0 75
70 0 c56 0 70 3 70 15 0 12 -18 15 -100 15 l-100 0 0 -195z"/>
<path d="M2000 2035 l0 -195 35 0 34 0 3 86 3 85 62 -85 c58 -80 65 -86 98
-86 42 0 44 -5 -37 102 -32 42 -58 79 -58 82 0 3 9 6 19 6 11 0 33 12 50 26
26 21 31 33 31 69 0 37 -5 47 -35 74 -34 29 -40 31 -120 31 l-85 0 0 -195z
m152 148 c52 -59 15 -143 -62 -143 -18 0 -20 7 -20 80 l0 80 33 0 c20 0 40 -7
49 -17z"/>
<path d="M2320 2035 l0 -195 105 0 c87 0 105 3 105 15 0 12 -14 15 -70 15
l-70 0 0 75 0 74 67 3 c42 2 68 8 71 16 3 9 -15 12 -67 12 l-71 0 0 75 0 74
67 3 c42 2 68 8 71 16 3 9 -22 12 -102 12 l-106 0 0 -195z"/>
<path d="M2570 2215 c0 -11 20 -15 100 -17 l99 -3 -99 -160 c-55 -88 -100
-168 -100 -177 0 -16 13 -18 140 -18 118 0 140 2 140 15 0 12 -18 15 -101 15
-79 0 -100 3 -96 13 3 7 48 82 101 166 53 85 96 160 96 167 0 11 -28 14 -140
14 -116 0 -140 -2 -140 -15z"/>
<path d="M1930 1497 c0 -2 23 -52 50 -110 48 -101 50 -110 50 -192 l0 -85 30
0 30 0 0 85 c0 81 2 90 44 173 51 102 62 132 47 132 -6 0 -30 -38 -53 -85 -23
-47 -45 -85 -48 -85 -4 0 -24 37 -46 83 -36 75 -42 82 -72 85 -17 2 -32 1 -32
-1z"/>
<path d="M510 876 c0 -6 -28 -104 -79 -273 -33 -109 -36 -123 -23 -123 5 0 17
27 28 61 10 33 22 60 27 60 4 -1 32 -1 61 -1 l55 0 17 -60 c15 -55 19 -60 45
-60 16 0 29 1 29 3 -1 1 -27 90 -58 197 -51 174 -60 195 -80 198 -12 2 -22 1
-22 -2z m30 -136 c0 -9 5 -21 11 -27 7 -7 13 -28 15 -47 l2 -36 -49 0 c-58 0
-58 0 -27 106 22 75 23 76 35 48 7 -16 12 -36 13 -44z"/>
<path d="M721 856 c-15 -16 -25 -42 -28 -70 -6 -49 -4 -52 120 -161 51 -45 25
-115 -42 -115 -22 0 -44 6 -51 15 -17 21 -30 19 -30 -5 0 -23 46 -50 85 -50
41 0 81 26 99 64 34 73 13 128 -72 184 -50 33 -57 42 -60 73 -2 23 2 40 13 49
19 15 73 16 88 1 16 -16 27 -13 27 8 0 24 -19 31 -79 31 -37 0 -52 -5 -70 -24z"/>
<path d="M990 854 c-51 -43 -64 -79 -65 -174 0 -72 4 -92 25 -129 33 -58 80
-84 143 -78 98 9 142 73 142 207 0 142 -45 200 -157 200 -46 0 -62 -5 -88 -26z
m153 -21 c22 -20 47 -104 47 -157 0 -140 -95 -222 -170 -148 -55 55 -65 184
-21 269 31 61 97 77 144 36z"/>
<path d="M1340 843 c-47 -47 -64 -105 -57 -190 8 -107 55 -169 135 -180 58 -8
102 12 102 45 0 24 -1 24 -19 8 -23 -21 -85 -24 -108 -4 -68 56 -72 235 -5
311 20 23 89 23 115 0 18 -17 19 -17 15 12 -3 30 -4 30 -71 33 -67 3 -69 2
-107 -35z"/>
<path d="M1570 680 l0 -200 30 0 30 0 0 200 0 200 -30 0 -30 0 0 -200z"/>
<path d="M1733 698 c-28 -101 -54 -191 -58 -200 -5 -12 -3 -18 7 -18 9 0 21
22 31 59 l17 59 60 4 61 3 17 -60 c16 -52 21 -60 45 -63 33 -4 34 5 8 80 -10
30 -36 114 -56 186 -34 118 -40 132 -60 132 -20 0 -26 -16 -72 -182z m72 70
c4 -18 14 -42 21 -53 8 -11 14 -34 14 -52 0 -33 0 -33 -51 -33 -43 0 -50 3
-46 18 29 109 43 152 49 152 3 0 10 -15 13 -32z"/>
<path d="M1990 681 l0 -201 76 0 77 0 42 43 c86 86 88 231 4 313 -39 38 -43
39 -119 43 l-80 3 0 -201z m152 142 c31 -27 48 -76 48 -135 0 -113 -41 -178
-111 -178 l-39 0 0 171 0 172 41 -6 c22 -3 50 -14 61 -24z"/>
<path d="M2359 857 c-49 -33 -72 -101 -67 -198 7 -127 56 -184 158 -184 52 0
63 4 90 30 53 50 64 81 64 175 0 95 -13 130 -64 174 -43 35 -131 37 -181 3z
m120 -8 c88 -31 109 -243 31 -321 -82 -81 -181 21 -167 174 6 70 33 129 67
145 31 16 30 16 69 2z"/>
<path d="M2677 852 c-22 -23 -27 -37 -27 -76 0 -51 10 -64 104 -139 28 -23 36
-36 36 -61 0 -19 -8 -40 -18 -49 -24 -22 -70 -22 -94 0 -17 15 -20 15 -28 3
-15 -24 -12 -30 27 -46 72 -30 138 0 162 74 16 48 -2 97 -49 133 -59 44 -100
87 -100 103 0 30 44 64 74 59 14 -3 29 -9 32 -14 10 -18 25 -9 22 14 -3 19
-10 22 -58 25 -50 3 -58 0 -83 -26z"/>
</g>
</svg>
